<mxfile host="app.diagrams.net" modified="2024-05-17T04:39:17.161Z" agent="Mozilla/5.0 (Windows NT 10.0; Win64; x64) AppleWebKit/537.36 (KHTML, like Gecko) Chrome/124.0.0.0 Safari/537.36 Edg/124.0.0.0" etag="Xu7h8fHtCarWkGRgAvTp" version="24.3.1" type="device">
  <diagram name="Page-1" id="uyrQVXB1R6y-NnIsLxXd">
    <mxGraphModel dx="1459" dy="826" grid="1" gridSize="1" guides="1" tooltips="1" connect="1" arrows="1" fold="1" page="1" pageScale="1" pageWidth="850" pageHeight="1100" math="0" shadow="0">
      <root>
        <mxCell id="0" />
        <mxCell id="1" parent="0" />
        <mxCell id="61JiQBCKGlbBF3VN6tgT-1" value="" style="endArrow=none;html=1;rounded=0;" edge="1" parent="1">
          <mxGeometry width="50" height="50" relative="1" as="geometry">
            <mxPoint x="225" y="447" as="sourcePoint" />
            <mxPoint x="225" y="391" as="targetPoint" />
          </mxGeometry>
        </mxCell>
        <mxCell id="61JiQBCKGlbBF3VN6tgT-3" value="" style="endArrow=none;html=1;rounded=0;" edge="1" parent="1">
          <mxGeometry width="50" height="50" relative="1" as="geometry">
            <mxPoint x="226" y="237" as="sourcePoint" />
            <mxPoint x="226" y="158" as="targetPoint" />
          </mxGeometry>
        </mxCell>
        <mxCell id="61JiQBCKGlbBF3VN6tgT-4" value="" style="endArrow=none;html=1;rounded=0;" edge="1" parent="1">
          <mxGeometry width="50" height="50" relative="1" as="geometry">
            <mxPoint x="226" y="237" as="sourcePoint" />
            <mxPoint x="465" y="238" as="targetPoint" />
          </mxGeometry>
        </mxCell>
        <mxCell id="61JiQBCKGlbBF3VN6tgT-5" value="" style="endArrow=none;html=1;rounded=0;" edge="1" parent="1">
          <mxGeometry width="50" height="50" relative="1" as="geometry">
            <mxPoint x="223" y="668" as="sourcePoint" />
            <mxPoint x="223" y="613" as="targetPoint" />
          </mxGeometry>
        </mxCell>
        <mxCell id="61JiQBCKGlbBF3VN6tgT-6" value="" style="endArrow=none;html=1;rounded=0;" edge="1" parent="1">
          <mxGeometry width="50" height="50" relative="1" as="geometry">
            <mxPoint x="223" y="668" as="sourcePoint" />
            <mxPoint x="461" y="669" as="targetPoint" />
          </mxGeometry>
        </mxCell>
        <mxCell id="61JiQBCKGlbBF3VN6tgT-8" value="" style="endArrow=none;html=1;rounded=0;" edge="1" parent="1">
          <mxGeometry width="50" height="50" relative="1" as="geometry">
            <mxPoint x="225" y="447" as="sourcePoint" />
            <mxPoint x="464" y="447" as="targetPoint" />
          </mxGeometry>
        </mxCell>
        <mxCell id="61JiQBCKGlbBF3VN6tgT-9" value="" style="endArrow=none;html=1;rounded=0;" edge="1" parent="1">
          <mxGeometry width="50" height="50" relative="1" as="geometry">
            <mxPoint x="227" y="236" as="sourcePoint" />
            <mxPoint x="320" y="191" as="targetPoint" />
          </mxGeometry>
        </mxCell>
        <mxCell id="61JiQBCKGlbBF3VN6tgT-10" value="" style="endArrow=none;html=1;rounded=0;dashed=1;" edge="1" parent="1">
          <mxGeometry width="50" height="50" relative="1" as="geometry">
            <mxPoint x="320" y="719" as="sourcePoint" />
            <mxPoint x="320" y="159" as="targetPoint" />
          </mxGeometry>
        </mxCell>
        <mxCell id="61JiQBCKGlbBF3VN6tgT-11" value="" style="endArrow=none;html=1;rounded=0;dashed=1;" edge="1" parent="1">
          <mxGeometry width="50" height="50" relative="1" as="geometry">
            <mxPoint x="402" y="720" as="sourcePoint" />
            <mxPoint x="404" y="160" as="targetPoint" />
          </mxGeometry>
        </mxCell>
        <mxCell id="61JiQBCKGlbBF3VN6tgT-12" value="" style="endArrow=none;html=1;rounded=0;" edge="1" parent="1">
          <mxGeometry width="50" height="50" relative="1" as="geometry">
            <mxPoint x="321" y="237" as="sourcePoint" />
            <mxPoint x="404" y="285" as="targetPoint" />
          </mxGeometry>
        </mxCell>
        <mxCell id="61JiQBCKGlbBF3VN6tgT-13" value="" style="endArrow=none;html=1;rounded=0;" edge="1" parent="1">
          <mxGeometry width="50" height="50" relative="1" as="geometry">
            <mxPoint x="226" y="446" as="sourcePoint" />
            <mxPoint x="320" y="401" as="targetPoint" />
          </mxGeometry>
        </mxCell>
        <mxCell id="61JiQBCKGlbBF3VN6tgT-14" value="" style="endArrow=none;html=1;rounded=0;" edge="1" parent="1">
          <mxGeometry width="50" height="50" relative="1" as="geometry">
            <mxPoint x="320" y="401" as="sourcePoint" />
            <mxPoint x="403" y="446" as="targetPoint" />
          </mxGeometry>
        </mxCell>
        <mxCell id="61JiQBCKGlbBF3VN6tgT-15" value="" style="endArrow=none;html=1;rounded=0;" edge="1" parent="1">
          <mxGeometry width="50" height="50" relative="1" as="geometry">
            <mxPoint x="223" y="693" as="sourcePoint" />
            <mxPoint x="320" y="645" as="targetPoint" />
          </mxGeometry>
        </mxCell>
        <mxCell id="61JiQBCKGlbBF3VN6tgT-16" value="" style="endArrow=none;html=1;rounded=0;" edge="1" parent="1">
          <mxGeometry width="50" height="50" relative="1" as="geometry">
            <mxPoint x="401" y="693" as="sourcePoint" />
            <mxPoint x="319" y="645" as="targetPoint" />
          </mxGeometry>
        </mxCell>
        <mxCell id="61JiQBCKGlbBF3VN6tgT-17" value="" style="endArrow=none;html=1;rounded=0;" edge="1" parent="1">
          <mxGeometry width="50" height="50" relative="1" as="geometry">
            <mxPoint x="223" y="668" as="sourcePoint" />
            <mxPoint x="223" y="723" as="targetPoint" />
          </mxGeometry>
        </mxCell>
      </root>
    </mxGraphModel>
  </diagram>
</mxfile>
